<svg width="35" height="35" viewBox="0 0 35 35" fill="none" xmlns="http://www.w3.org/2000/svg">
<path d="M25.3409 0H9.65847C4.33279 0 0 4.333 0 9.65868V25.3411C0 30.667 4.33279 34.9998 9.65847 34.9998H25.3409C30.667 34.9998 34.9998 30.6668 34.9998 25.3411V9.65868C35 4.333 30.667 0 25.3409 0ZM31.8946 25.3411C31.8946 28.9547 28.9547 31.8944 25.3411 31.8944H9.65847C6.04508 31.8946 3.10535 28.9547 3.10535 25.3411V9.65868C3.10535 6.04529 6.04508 3.10535 9.65847 3.10535H25.3409C28.9545 3.10535 31.8944 6.04529 31.8944 9.65868V25.3411H31.8946Z" fill="white"/>
<path d="M17.4999 8.48175C12.527 8.48175 8.48132 12.5274 8.48132 17.5003C8.48132 22.473 12.527 26.5185 17.4999 26.5185C22.4728 26.5185 26.5184 22.473 26.5184 17.5003C26.5184 12.5274 22.4728 8.48175 17.4999 8.48175ZM17.4999 23.4129C14.2395 23.4129 11.5867 20.7605 11.5867 17.5001C11.5867 14.2395 14.2393 11.5869 17.4999 11.5869C20.7605 11.5869 23.4131 14.2395 23.4131 17.5001C23.4131 20.7605 20.7603 23.4129 17.4999 23.4129Z" fill="white"/>
<path d="M26.8967 5.84862C26.2984 5.84862 25.7107 6.09084 25.2881 6.51523C24.8635 6.93756 24.6194 7.52551 24.6194 8.12587C24.6194 8.72438 24.8637 9.31212 25.2881 9.73652C25.7105 10.1588 26.2984 10.4031 26.8967 10.4031C27.4971 10.4031 28.0829 10.1588 28.5073 9.73652C28.9317 9.31212 29.174 8.72417 29.174 8.12587C29.174 7.52551 28.9317 6.93756 28.5073 6.51523C28.085 6.09084 27.4971 5.84862 26.8967 5.84862Z" fill="white"/>
</svg>
