<svg width="35" height="35" viewBox="0 0 35 35" fill="none" xmlns="http://www.w3.org/2000/svg">
<path d="M8.1471 11.2599H1.12079C0.808952 11.2599 0.556274 11.5126 0.556274 11.8244V34.3969C0.556274 34.7087 0.808952 34.9614 1.12079 34.9614H8.1471C8.45894 34.9614 8.71161 34.7087 8.71161 34.3969V11.8244C8.71161 11.5126 8.45894 11.2599 8.1471 11.2599Z" fill="white"/>
<path d="M4.63648 0.0385132C2.0799 0.0385132 0 2.11616 0 4.66992C0 7.2248 2.0799 9.30324 4.63648 9.30324C7.19103 9.30324 9.26924 7.22469 9.26924 4.66992C9.26935 2.11616 7.19103 0.0385132 4.63648 0.0385132Z" fill="white"/>
<path d="M26.019 10.6988C23.197 10.6988 21.1109 11.912 19.8456 13.2904V11.8244C19.8456 11.5126 19.5929 11.2598 19.281 11.2598H12.5521C12.2403 11.2598 11.9876 11.5126 11.9876 11.8244V34.3969C11.9876 34.7087 12.2403 34.9614 12.5521 34.9614H19.5631C19.8749 34.9614 20.1276 34.7087 20.1276 34.3969V23.2287C20.1276 19.4653 21.1498 17.9991 23.7732 17.9991C26.6304 17.9991 26.8574 20.3496 26.8574 23.4223V34.397C26.8574 34.7088 27.1101 34.9615 27.4219 34.9615H34.4355C34.7473 34.9615 35 34.7088 35 34.397V22.0156C35 16.4195 33.9329 10.6988 26.019 10.6988Z" fill="white"/>
</svg>
