<svg width="45" height="50" viewBox="0 0 45 50" fill="none" xmlns="http://www.w3.org/2000/svg">
<path d="M22.1799 50C21.5052 50.0003 20.8422 49.8228 20.258 49.4854L14.1377 45.8667C13.2246 45.3563 13.6707 45.175 13.9709 45.0688C15.1903 44.6459 15.4363 44.548 16.7392 43.8105C16.8747 43.7334 17.054 43.7625 17.1936 43.8459L21.8964 46.6354C21.9838 46.6816 22.0811 46.7058 22.1799 46.7058C22.2788 46.7058 22.3761 46.6816 22.4635 46.6354L40.7974 36.0605C40.8828 36.009 40.9534 35.9363 41.0024 35.8494C41.0513 35.7625 41.0769 35.6644 41.0766 35.5647V14.4191C41.0764 14.3176 41.05 14.2179 41 14.1296C40.95 14.0413 40.878 13.9674 40.7911 13.9149L22.4655 3.34839C22.3792 3.30023 22.2819 3.27495 22.1831 3.27495C22.0842 3.27495 21.987 3.30023 21.9006 3.34839L3.57923 13.917C3.49188 13.9688 3.41934 14.0422 3.3686 14.1302C3.31786 14.2181 3.29062 14.3176 3.2895 14.4191V35.5647C3.28975 35.6647 3.31674 35.7628 3.36768 35.8489C3.41862 35.935 3.49166 36.0059 3.57923 36.0543L8.60098 38.9543C11.3255 40.3167 12.9953 38.7126 12.9953 37.1001V16.2233C12.9952 16.1535 13.0089 16.0844 13.0358 16.02C13.0627 15.9556 13.1021 15.8972 13.1517 15.8481C13.2014 15.7991 13.2603 15.7604 13.3251 15.7343C13.3898 15.7082 13.4591 15.6953 13.5289 15.6962H15.8532C15.9936 15.6958 16.1284 15.7511 16.228 15.8499C16.3277 15.9487 16.3841 16.083 16.3848 16.2233V37.1001C16.3848 40.7354 14.4045 42.8188 10.9566 42.8188C9.89762 42.8188 9.06171 42.8188 6.7332 41.6708L1.92202 38.9063C1.33718 38.566 0.8519 38.0783 0.514634 37.4919C0.177368 36.9056 -8.2338e-05 36.241 2.86608e-08 35.5647V14.4191C0.000129197 13.7431 0.177688 13.079 0.51495 12.493C0.852212 11.907 1.33738 11.4196 1.92202 11.0796L20.2559 0.492187C21.417 -0.164062 22.9575 -0.164062 24.1082 0.492187L42.44 11.0796C43.0253 11.4192 43.5112 11.9064 43.8492 12.4924C44.1872 13.0784 44.3654 13.7427 44.3662 14.4191V35.5647C44.3649 36.2413 44.1865 36.9057 43.8486 37.492C43.5106 38.0782 43.025 38.5658 42.44 38.9063L24.1082 49.4854C23.5223 49.8244 22.8569 50.0019 22.1799 50ZM36.9826 29.1523C36.9826 25.194 34.3059 24.1398 28.6713 23.3961C22.9783 22.644 22.3988 22.2545 22.3988 20.9232C22.3988 19.8232 22.8887 18.3545 27.1058 18.3545C30.8726 18.3545 32.261 19.1649 32.8321 21.7024C32.858 21.8197 32.9231 21.9247 33.0168 22C33.1104 22.0754 33.2268 22.1166 33.347 22.1169H35.7255C35.7982 22.1163 35.87 22.101 35.9366 22.072C36.0032 22.043 36.0633 22.0009 36.1133 21.9482C36.1637 21.8936 36.2021 21.829 36.2262 21.7587C36.2502 21.6884 36.2593 21.6139 36.253 21.5399C35.884 17.1691 32.9781 15.1316 27.1058 15.1316C21.8777 15.1316 18.7592 17.3357 18.7592 21.0336C18.7592 25.044 21.861 26.1523 26.8786 26.6481C32.8822 27.2356 33.347 28.1127 33.347 29.2919C33.347 31.3397 31.7023 32.2127 27.8396 32.2127C22.9888 32.2127 21.9214 30.996 21.5629 28.5835C21.543 28.4582 21.4788 28.3442 21.3821 28.2621C21.2854 28.1799 21.1624 28.1351 21.0355 28.1356H18.6654C18.5959 28.1352 18.527 28.1484 18.4626 28.1747C18.3983 28.201 18.3398 28.2398 18.2906 28.2888C18.2414 28.3378 18.2024 28.3961 18.1758 28.4603C18.1492 28.5245 18.1357 28.5933 18.1359 28.6627C18.1359 31.7501 19.8161 35.4293 27.8396 35.4293C33.6514 35.4314 36.9826 33.146 36.9826 29.1523V29.1523Z" fill="#7EBB00"/>
</svg>
