<svg width="50" height="50" viewBox="0 0 50 50" fill="none" xmlns="http://www.w3.org/2000/svg">
<path d="M34.375 15.625V20.3125C34.375 22.9094 32.2844 25 29.6875 25H20.3125C20.3125 25 15.625 25 15.625 29.6875V37.8906C15.625 41.1375 19.2844 43.75 23.8281 43.75H26.1719C30.7156 43.75 34.375 41.1375 34.375 37.8906V34.375H37.8906C41.1375 34.375 43.75 30.7156 43.75 26.1719V23.8281C43.75 19.2844 41.1375 15.625 37.8906 15.625H34.375Z" fill="#F0DB4E"/>
<path d="M29.6875 37.5C30.1019 37.5 30.4993 37.6646 30.7924 37.9576C31.0854 38.2507 31.25 38.6481 31.25 39.0625C31.25 39.4769 31.0854 39.8743 30.7924 40.1674C30.4993 40.4604 30.1019 40.625 29.6875 40.625C29.2731 40.625 28.8757 40.4604 28.5826 40.1674C28.2896 39.8743 28.125 39.4769 28.125 39.0625C28.125 38.6481 28.2896 38.2507 28.5826 37.9576C28.8757 37.6646 29.2731 37.5 29.6875 37.5Z" fill="#1A202C"/>
<path d="M23.8281 6.25C19.2844 6.25 15.625 8.86328 15.625 12.1094V15.625H12.1094C8.86328 15.625 6.25 19.2844 6.25 23.8281V26.1719C6.25 30.7156 8.86328 34.375 12.1094 34.375H15.625V29.6875C15.625 27.0906 17.7156 25 20.3125 25H29.6875C29.6875 25 34.375 25 34.375 20.3125V12.1094C34.375 8.86328 30.7156 6.25 26.1719 6.25H23.8281Z" fill="#0077BC"/>
<path d="M20.3125 9.375C20.7269 9.375 21.1243 9.53962 21.4174 9.83265C21.7104 10.1257 21.875 10.5231 21.875 10.9375C21.875 11.3519 21.7104 11.7493 21.4174 12.0424C21.1243 12.3354 20.7269 12.5 20.3125 12.5C19.8981 12.5 19.5007 12.3354 19.2076 12.0424C18.9146 11.7493 18.75 11.3519 18.75 10.9375C18.75 10.5231 18.9146 10.1257 19.2076 9.83265C19.5007 9.53962 19.8981 9.375 20.3125 9.375Z" fill="#1A202C"/>
<path d="M15.5 34.5V29C15.5 27.6667 16.4 25 20 25C23.6 25 28.1667 25 30 25C31.5 25 34.5 24.2 34.5 21C34.5 17.8 34.5 16 34.5 15.5" stroke="#1A202C" stroke-linecap="round"/>
</svg>
