<svg width="57" height="50" viewBox="0 0 57 50" fill="none" xmlns="http://www.w3.org/2000/svg">
<path d="M16.7635 44.5607C10.8818 41.1141 5.85861 32.7934 3.26231 25.4951C2.21947 22.3291 1.86231 18.9348 0.517953 15.8911C-0.888383 13.6805 0.758948 11.2639 3.18042 10.5612C4.25851 10.3543 6.15413 9.33741 3.86592 10.0642C1.81448 11.5693 1.61594 8.698 3.71954 8.51618C5.15514 8.32536 5.68362 7.15012 5.19269 6.09215C3.65164 5.08721 8.92951 3.98277 6.2739 2.48326C3.50747 -0.501408 10.1435 -1.07596 8.50632 2.3137C8.11442 4.92021 13.1433 1.83598 11.9765 4.84594C13.1624 6.29142 16.4176 5.17493 16.3368 7.20281C18.0644 7.32157 18.6573 8.77518 20.2791 8.88678C21.9599 9.64582 25.007 10.244 25.5789 12.138C23.9114 13.4582 20.0499 9.41103 19.8644 13.0655C20.5681 25.9562 21.2348 30.4007 27.4594 37.1538C31.6522 41.8979 37.4137 44.1351 42.2774 44.9316C43.3251 44.1303 45.1748 41.151 46.8091 42.4073C46.8867 43.8189 43.5652 45.3581 46.6529 45.2021C48.4659 44.6551 49.7234 46.6042 51.2164 44.8461C52.5919 46.4754 56.9336 43.8051 55.9549 47.1354C54.6315 47.9893 52.7014 47.4733 51.3758 48.6479C49.1902 47.5563 47.4502 49.6247 45.0306 49.3631C35.703 50.9956 23.5478 49.523 16.7635 44.5607ZM27.7267 48.595C31.7931 49.1606 35.9924 50.0305 40.0734 49.237C38.2264 48.403 36.3169 49.5619 34.4769 48.6406C32.27 49.1155 29.9017 48.5196 27.6582 48.2263C25.1068 47.0898 22.3535 46.3084 19.9643 44.8333C16.979 43.7428 21.5084 46.2317 22.3146 46.4332C24.1808 47.4925 20.2623 45.8902 19.7099 45.4499C18.1468 44.573 17.908 44.7774 19.5155 45.6679C22.0222 47.2208 25.1636 48.2735 27.7267 48.595ZM16.0878 43.0512C18.3541 43.8906 16.0778 41.4574 15.0393 41.5988C14.5792 40.8006 13.2814 40.2963 14.1969 39.8675C12.5501 40.4392 12.4718 37.6935 11.6978 38.0858C9.95565 37.5357 11.0197 35.587 8.94456 34.3903C8.75514 33.1293 6.88279 32.0356 6.2856 30.1336C6.02184 29.1598 4.17025 26.3633 5.30769 28.9659C6.27615 31.4713 7.9801 33.6168 9.39811 35.7599C10.4992 37.8004 11.7993 39.933 13.8046 41.2059C14.4806 41.8543 15.1332 42.8479 16.0878 43.0512ZM19.0064 39.102C17.7664 38.4411 15.067 38.0991 16.9719 39.6111C18.1948 40.1053 21.3114 40.345 19.0064 39.102ZM21.0848 41.7299C23.748 42.4833 18.8453 40.0457 20.4277 41.4527L21.0848 41.7299ZM21.1074 40.3187C23.0421 40.5682 18.8054 39.0028 20.6829 40.1786L21.1074 40.3187ZM27.8314 44.4531C29.6376 43.3733 29.0421 46.9818 30.8958 44.758C32.7243 43.4229 29.3168 46.4085 31.5703 44.996C33.2 43.906 35.6072 45.5127 37.1279 46.037C38.2215 45.9832 39.2847 46.9826 40.4058 46.3746C42.5639 45.7933 36.1856 45.5125 37.8576 44.4811C35.8828 45.0559 34.4238 43.796 33.4521 42.5311C31.2371 42.0196 28.676 40.8871 27.5705 38.9269C27.1197 38.1909 28.2216 39.0306 27.1814 37.8275C25.8466 36.6403 25.1802 35.2927 24.2841 33.8496C23.2137 33.2785 23.089 31.5977 22.9808 33.7932C22.9893 32.4076 21.6885 31.475 21.3709 31.8627C21.3653 30.5283 22.7631 31.1972 21.7846 30.2099C21.5739 28.8268 20.8805 27.3856 20.672 25.824C20.3482 25.0713 20.6264 23.4592 19.5667 25.1632C19.1806 26.964 19.4385 22.9501 20.0389 24.2737C20.827 22.9231 19.756 23.0819 19.7121 23.2695C20.2255 22.1299 20.037 20.5134 19.5782 21.1301C19.8517 19.9223 20.0103 16.6849 19.1688 17.2586C19.6789 15.9956 20.1362 11.4793 17.9217 13.2012C17.0242 13.2138 15.47 13.527 14.7353 13.8924C17.0388 15.1621 14.5036 14.3509 13.5659 14.1491C13.4438 15.324 12.515 14.8159 11.3547 14.8274C13.208 15.0567 10.4522 16.7228 9.38908 16.0756C8.00833 16.7355 10.5807 18.3828 9.41678 18.8921C9.55982 19.66 7.30147 18.6148 7.47883 20.3881C6.13839 19.8242 7.29426 22.4916 7.96488 21.5894C10.2447 22.2065 9.56983 23.6132 9.62789 24.9495C9.25642 25.7282 7.79393 23.1192 9.30217 23.2401C8.11228 21.3071 7.98594 22.5414 6.99718 23.4393C6.76716 23.5046 9.51928 24.717 7.79218 25.3165C9.31167 25.551 9.3549 26.8807 9.66423 27.7221C10.5775 28.6733 10.3906 26.6717 11.4834 27.8149C10.7919 26.7964 7.82051 24.9453 10.2129 25.539C10.2001 24.514 9.78018 23.6875 10.5131 23.7075C11.239 22.393 9.75296 26.9485 11.389 25.2779C11.8419 25.0801 11.9541 23.9617 12.7681 25.3835C13.9505 26.5466 13.1952 27.3895 11.5273 26.3244C11.8257 27.3367 13.7585 27.6985 13.3953 29.2815C13.7804 30.6737 14.3191 30.1609 14.7887 30.0805C15.157 31.4332 15.3662 30.4385 15.3837 29.7948C17.0703 30.1558 16.6752 31.1528 17.2029 31.8494C18.3652 32.3739 15.5394 28.2935 17.5347 30.6224C19.634 32.5177 18.3334 33.1711 16.4381 33.0053C18.0146 33.1343 18.0477 34.5385 19.5064 34.5572C20.7744 35.211 21.7737 37.6639 19.4294 36.6294C18.1074 35.8092 15.7526 35.0173 18.1027 36.4117C18.659 36.7639 21.9972 38.0182 24.0907 39.28C25.2497 40.0723 26.2362 41.5745 26.804 41.817C25.5448 42.4185 23.0093 41.3368 24.8921 41.0053C23.7178 40.7914 22.4377 40.189 23.5218 41.6606C24.4539 42.5129 26.9103 42.3746 27.3463 42.4651C26.9768 43.2794 26.3425 43.3442 27.3615 43.4073C26.2247 44.0132 27.726 44.107 27.8314 44.4531ZM25.3839 36.9893C24.6363 35.8104 24.8151 37.1652 25.5067 37.8885C26.6121 39.2032 25.7673 37.1432 25.3839 36.9893ZM21.2565 30.8911C21.2565 30.8911 21.4408 29.6475 20.8722 29.51C20.3036 29.3724 20.6168 29.6014 21.0718 30.5858C21.1803 30.8206 21.2473 30.902 21.2464 30.8966M15.0328 26.1775C14.468 24.9125 15.3016 25.5994 15.1802 25.0599C14.9195 24.5176 12.3854 21.6376 13.5397 23.8119C14.5843 26.4056 12.8825 23.4863 12.705 22.6025C12.5087 23.1452 13.1183 24.9227 13.4867 25.5284C14.4248 26.973 14.0028 24.7373 15.0328 26.1775ZM9.84356 21.1896C8.37693 19.9559 10.2957 21.7978 9.70014 21.7745C8.15449 20.6457 8.78627 21.4454 9.65929 22.3129C10.6051 23.7183 11.3858 21.4708 9.84356 21.1896ZM10.5965 21.4017C13.371 22.164 7.64394 18.7244 10.1819 20.983L10.5965 21.4017ZM18.2744 24.681C17.4781 24.6972 18.6047 22.9469 17.537 23.2923C17.1625 20.5721 16.3552 24.5495 17.4535 25.208C17.7926 26.1823 18.1489 25.7853 18.2744 24.681ZM11.724 20.8114C15.4183 22.5163 9.04929 17.9913 10.6798 20.2408C10.8735 20.6744 11.338 20.7104 11.724 20.8114ZM12.1474 19.9276C14.9454 21.0842 11.8986 19.175 10.9295 19.3823C11.1738 19.7398 11.8365 19.5835 12.1474 19.9276ZM12.5221 18.8807C13.4304 18.6993 12.4016 18.4081 11.8589 17.9768C10.6027 16.0898 12.0457 18.1291 11.6509 18.7083C12.1737 19.2222 13.9506 20.1409 12.5221 18.8807ZM18.9478 15.953C18.5769 17.9133 18.1986 17.0957 18.7303 15.6342C18.6031 13.7585 17.4632 16.7829 17.9669 17.6706C18.7999 18.9974 19.6328 14.4102 18.9478 15.953ZM20.0554 39.2921C21.498 39.6623 21.4906 39.0676 20.1868 38.891C19.4855 38.2386 17.2726 37.5466 19.2532 38.81C19.3844 39.1423 19.7989 39.1346 20.0554 39.2921ZM14.9333 35.89C15.728 36.4827 17.9269 37.5697 16.0655 36.1156C16.6931 35.3865 14.8643 34.9984 15.4709 34.5106C13.9279 33.5664 14.2537 33.6504 15.3347 33.6801C13.4803 32.8512 15.6024 32.9132 15.5025 32.4885C14.7874 32.3472 11.9507 31.2276 13.6196 32.5804C11.9231 31.7155 13.2153 32.9027 12.7025 32.7771C10.9678 32.3041 14.2474 34.0984 12.427 33.653C13.4222 34.4416 15.1058 35.6731 12.8478 34.4876C12.5503 34.9158 14.4636 35.565 14.9333 35.89ZM32.9583 46.4608C33.7192 45.7234 32.9894 47.6353 34.2192 46.2803C34.2325 45.3103 34.1813 44.7373 32.806 45.9156C32.4269 46.1259 32.2576 47.0199 32.9583 46.4608ZM20.4975 38.4605C21.3439 39.2123 24.3851 39.0121 21.5255 38.553C21.102 37.9268 18.8362 38.0775 20.4975 38.4605ZM6.55556 29.0954C5.32599 27.341 5.79123 26.5524 4.60549 25.1199C4.38102 24.0245 2.57134 21.5388 3.66949 24.1722C4.67533 25.7124 4.97422 28.097 6.55556 29.0954ZM42.9861 46.4101C44.1824 46.1676 46.9085 47.019 47.3491 46.0929C45.8964 46.0576 42.323 45.068 42.1539 46.3291L42.9861 46.4101ZM2.24993 16.1805C2.0319 14.9306 1.76825 12.7368 3.8537 13.4782C1.06996 14.0309 5.78035 16.9381 5.18552 14.6427C6.35601 14.7 7.47527 13.951 6.86101 15.0877C9.16723 14.833 10.7661 12.8332 12.9937 13.1134C14.729 12.8838 16.6262 12.7097 18.4962 12.0112C20.0336 11.9004 21.5136 10.2451 20.6709 9.26399C18.5743 9.08659 16.3795 9.34891 14.0622 9.80952C11.4943 10.3434 9.16172 11.3576 6.57074 11.793C4.04527 12.1322 7.07872 12.7277 6.35532 12.8603C5.0375 13.3176 7.92693 13.6259 6.18448 14.108C5.10837 13.9033 3.98827 13.5336 4.44794 12.3996C2.02876 12.7135 -0.0969994 13.7175 1.8143 16.1794L2.24993 16.1805ZM8.71548 13.4892C10.8246 14.9311 8.353 11.1221 7.78579 13.2117C8.04924 13.1469 8.46356 13.3007 8.71548 13.4892ZM9.31581 12.523C11.3152 12.7241 9.00953 11.2536 8.93563 12.1769L9.31581 12.523ZM12.6666 11.2985C15.6179 10.7367 11.586 10.3609 10.7213 11.3998C11.2693 11.6496 11.8756 10.7029 12.6666 11.2985ZM17.7286 10.2931C19.5942 10.0066 18.0219 9.15024 17.476 10.5805C17.6739 11.0315 17.7691 10.4453 17.7286 10.2931ZM7.69295 17.9146C8.74742 17.8422 9.34273 16.7514 7.48902 16.8141C4.61608 16.5167 10.0238 17.7978 7.12046 17.4315C6.73035 17.6899 7.67029 17.9861 7.69295 17.9146ZM6.21638 9.58526C8.09829 8.94504 10.474 8.40128 11.5332 9.94526C10.7365 8.82124 11.1954 7.74059 12.0495 9.33194C13.2573 10.942 13.6907 8.91825 13.0764 8.05956C13.6608 8.98394 15.8306 10.9967 13.6757 8.12986C15.1036 6.41227 10.8167 8.35478 9.84226 8.33522C9.37345 8.54564 5.00209 9.45003 6.21638 9.58526ZM7.31929 7.473C8.39256 6.66293 11.0312 7.95485 9.33801 6.66793C9.17247 6.52171 5.62985 7.64382 7.31929 7.473ZM11.2321 7.63454C12.4882 7.66659 10.6903 5.94707 12.1871 6.72624C11.9413 5.92315 10.4444 5.77281 9.71258 5.45195C9.29866 6.1862 10.5551 7.64441 11.2321 7.63454ZM6.61853 2.12891C5.19325 0.268327 9.29898 2.44167 7.85089 0.493574C6.63208 -0.476964 5.46088 1.58576 6.61853 2.12891ZM24.9098 11.9811C25.5635 10.8223 22.2109 10.419 24.4694 11.5704C24.6773 11.6399 24.6302 12.0613 24.9098 11.9811Z" fill="#00171f"/>
</svg>
