<svg width="28" height="32" viewBox="0 0 28 32" fill="none" xmlns="http://www.w3.org/2000/svg">
<path d="M18.8842 1.79657C16.0325 1.13405 13.0668 1.13405 10.2151 1.7966C8.56805 0.78561 7.30949 0.321673 6.39478 0.12621C5.89748 0.0199267 5.50331 -0.00662662 5.20683 0.00130672C5.05888 0.00525005 4.93642 0.0177566 4.83889 0.0327833C4.79017 0.0402733 4.74784 0.0483698 4.71182 0.0562565C4.6938 0.0601998 4.67738 0.0640967 4.66256 0.0678534L4.64151 0.0733366L4.6319 0.0759733L4.6273 0.0772567L4.62287 0.0785167C4.62285 0.0785167 4.62287 0.0784934 4.62287 0.0785167C4.62187 0.07896 4.62679 0.0922133 4.94338 1.19922L4.62287 0.0785167C4.29147 0.173273 4.01893 0.409757 3.8784 0.724477C3.48602 1.60305 3.27173 2.55071 3.24788 3.51262C3.23015 4.22746 3.31786 4.93964 3.50707 5.62644C3.00984 6.22872 2.6047 6.90314 2.30617 7.62783C1.91436 8.57904 1.71393 9.59817 1.71635 10.6269C1.71666 14.2495 2.78542 16.6852 4.60677 18.2503C5.88287 19.3469 7.43419 19.9304 8.98751 20.2645C8.73101 20.9771 8.66444 21.731 8.71635 22.4994V23.8952C7.76587 24.0952 7.10955 24.0319 6.64165 23.8775C6.05369 23.6833 5.60294 23.2932 5.17298 22.7325C4.95521 22.4488 4.75459 22.137 4.54391 21.7959L4.41019 21.5782C4.2452 21.3087 4.06714 21.0182 3.88745 20.7531C3.44223 20.0965 2.78537 19.276 1.72095 18.9966L0.592527 18.7003L0 20.9571L1.12842 21.2534C1.31381 21.3022 1.55783 21.4751 1.95624 22.0626C2.10264 22.2784 2.24229 22.5064 2.40175 22.7666C2.45182 22.8482 2.50397 22.9334 2.55878 23.0223C2.77779 23.3767 3.02897 23.7713 3.32164 24.1528C3.91251 24.923 4.717 25.6993 5.91038 26.0932C6.73034 26.3639 7.65714 26.4287 8.71635 26.2661V30.625C8.71635 31.2692 9.23869 31.7917 9.88302 31.7917H19.2164C19.8607 31.7917 20.383 31.2692 20.383 30.625V22.3125C20.383 21.5756 20.3509 20.902 20.1436 20.2734C21.689 19.9472 23.2281 19.3632 24.4958 18.2658C26.3165 16.6897 27.3831 14.232 27.3831 10.5875V10.5837C27.3772 8.76661 26.7395 7.01626 25.5922 5.62648C25.7815 4.93967 25.8692 4.22749 25.8515 3.51262C25.8277 2.55071 25.6135 1.60305 25.221 0.724477C25.0803 0.409663 24.8078 0.173157 24.4762 0.0784232L24.1558 1.2002C24.4762 0.0784232 24.4729 0.0774899 24.4718 0.0771632L24.4673 0.0758801L24.4575 0.0732665L24.4365 0.0677833C24.4218 0.0640499 24.4053 0.0601534 24.3873 0.0562101C24.3514 0.0483234 24.3091 0.0402499 24.2604 0.0327599C24.1628 0.0177566 24.0403 0.00525005 23.8924 0.00130672C23.5958 -0.00662662 23.2015 0.0199266 22.704 0.126187C21.7891 0.321673 20.5308 0.785586 18.8842 1.79657Z" fill="white"/>
</svg>
